<?xml version="1.0" encoding="iso-8859-1"?>
<!-- Uploaded to: SVG Repo, www.svgrepo.com, Generator: SVG Repo Mixer Tools -->
<svg height="800px" width="800px" version="1.1" id="Layer_1" xmlns="http://www.w3.org/2000/svg" xmlns:xlink="http://www.w3.org/1999/xlink" 
	 viewBox="0 0 508.609 508.609" xml:space="preserve">
<path style="fill:#9D90C5;" d="M434.691,508.609H73.918V349.923c0-21.701,16.275-41.028,39.332-46.453l141.054-33.568
	l141.054,33.568c23.057,5.425,39.332,24.413,39.332,46.453V508.609z"/>
<path style="fill:#C19D7B;" d="M254.305,0c-58.321,0-105.791,47.47-105.791,105.791v201.07c0,20.683,10.85,38.993,27.126,49.166
	v29.16c0,16.954,13.902,30.856,30.856,30.856v-51.2l0,0V224.805h95.619v140.037v51.2c16.954,0,30.856-13.902,30.856-30.856v-29.16
	c16.276-10.172,27.126-28.482,27.126-49.166v-201.07C360.095,47.47,312.625,0,254.305,0z"/>
<g>
	<path style="fill:#FACCB4;" d="M302.114,299.401c0,63.746-95.619,63.746-95.619,0c0-33.568,0-67.136,0-100.705
		c31.873,0,63.746,0,95.619,0C302.114,231.926,302.114,265.494,302.114,299.401z"/>
	<path style="fill:#FACCB4;" d="M224.127,76.63c0,0-11.189,41.028-38.993,49.505v68.832c0,38.315,31.195,69.51,69.51,69.51
		c37.976,0,69.171-31.195,69.171-69.51v-60.694C323.815,134.273,264.138,141.393,224.127,76.63z"/>
</g>
</svg>