<?xml version="1.0" encoding="iso-8859-1"?>
<!-- Uploaded to: SVG Repo, www.svgrepo.com, Generator: SVG Repo Mixer Tools -->
<svg height="800px" width="800px" version="1.1" id="Layer_1" xmlns="http://www.w3.org/2000/svg" xmlns:xlink="http://www.w3.org/1999/xlink" 
	 viewBox="0 0 508.609 508.609" xml:space="preserve">
<path style="fill:#EA5F6E;" d="M456.053,508.609H52.556v-72.223c0-33.568,25.091-61.711,58.321-65.78l88.837-10.85h109.181
	l88.837,10.85c33.229,4.069,58.321,32.212,58.321,65.78V508.609z"/>
<polygon style="fill:#EEB490;" points="199.714,260.408 199.714,364.164 254.305,425.197 308.895,364.164 308.895,260.408 "/>
<g>
	<circle style="fill:#56545F;" cx="254.305" cy="54.591" r="54.591"/>
	<circle style="fill:#56545F;" cx="254.305" cy="178.352" r="119.693"/>
</g>
<g>
	<circle style="fill:#EEB490;" cx="164.111" cy="224.805" r="35.603"/>
	<circle style="fill:#EEB490;" cx="344.498" cy="224.805" r="35.603"/>
</g>
<path style="fill:#FACCB4;" d="M298.045,139.698h-87.481c-27.804,0-50.183,22.379-50.183,50.183v50.183
	c0,51.878,42.045,94.262,94.262,94.262l0,0c51.878,0,94.262-42.045,94.262-94.262v-50.183
	C348.567,162.077,325.849,139.698,298.045,139.698z"/>
<g>
	<polygon style="fill:#FF667C;" points="199.714,364.164 199.714,486.57 254.305,425.197 	"/>
	<polygon style="fill:#FF667C;" points="308.895,364.164 308.895,486.57 254.305,425.197 	"/>
</g>
</svg>