<?xml version="1.0" encoding="iso-8859-1"?>
<!-- Uploaded to: SVG Repo, www.svgrepo.com, Generator: SVG Repo Mixer Tools -->
<svg height="800px" width="800px" version="1.1" id="Layer_1" xmlns="http://www.w3.org/2000/svg" xmlns:xlink="http://www.w3.org/1999/xlink" 
	 viewBox="0 0 508.609 508.609" xml:space="preserve">
<path style="fill:#56545F;" d="M324.154,291.942H186.151c-21.701,0-38.993-17.632-38.993-38.993V115.963h216.328v136.646
	C363.486,274.31,345.854,291.942,324.154,291.942z"/>
<path style="fill:#D34A5E;" d="M468.599,508.609H40.011v-99.687c0-26.109,18.988-48.487,46.453-55.269l167.841-39.672
	l167.841,39.672c27.465,6.442,46.453,29.16,46.453,55.269V508.609z"/>
<path style="fill:#C19D7B;" d="M293.976,477.075c5.425-19.327,5.086-39.672,11.868-58.999c9.833-28.821,22.718-56.625,37.976-83.073
	l-89.515-21.022l-82.734,19.666v110.538c19.327,20.683,37.298,42.045,55.608,63.746c0.339,0.339,0.339,0.339,0.339,0.678h53.913
	C285.838,498.437,290.585,488.265,293.976,477.075z"/>
<g>
	<path style="fill:#EEB490;" d="M304.487,324.832c0-30.177,0-60.355,0-90.872c-33.568,0-67.136,0-100.366,0
		c0,30.178,0,60.355,0,90.872C204.122,391.968,304.487,391.968,304.487,324.832z"/>
	<circle style="fill:#EEB490;" cx="178.013" cy="181.065" r="39.332"/>
	<circle style="fill:#EEB490;" cx="330.596" cy="181.065" r="39.332"/>
</g>
<path style="fill:#56545F;" d="M147.158,108.164v5.764c0,26.787,10.85,52.895,29.838,71.883l0,0h156.652l0,0
	c18.988-18.988,29.838-44.758,29.838-71.883v-5.764C363.486,48.487,314.999,0,255.322,0l0,0
	C195.645,0,147.158,48.487,147.158,108.164z"/>
<path style="fill:#FACCB4;" d="M303.131,102.4h-97.653c-15.936,0-28.821,12.885-28.821,28.821v94.94
	c0.339,42.723,34.925,77.309,77.648,77.309s77.309-34.585,77.309-77.309v-94.94C331.613,115.285,318.728,102.4,303.131,102.4z"/>
<g>
	<polygon style="fill:#FF667C;" points="328.901,331.613 266.85,508.609 291.264,508.609 370.268,443.168 350.94,411.295 
		382.135,411.295 357.383,338.395 	"/>
	<polygon style="fill:#FF667C;" points="179.709,331.613 241.759,508.609 217.346,508.609 138.342,443.168 157.669,411.295 
		126.474,411.295 151.226,338.395 	"/>
</g>
</svg>